HIERARCHY
ROOT hip
{
  OFFSET -50.5495 80.3689 -57.5952
  CHANNELS 6 Xposition Yposition Zposition Zrotation Xrotation Yrotation
  JOINT abdomen
  {
    OFFSET 0 20.6881 -0.73152
    CHANNELS 3 Zrotation Xrotation Yrotation
    JOINT chest
    {
      OFFSET 0 11.7043 -0.48768
      CHANNELS 3 Zrotation Xrotation Yrotation
      JOINT neck
      {
        OFFSET 0 22.1894 -2.19456
        CHANNELS 3 Zrotation Xrotation Yrotation
        JOINT head
        {
          OFFSET -0.24384 7.07133 1.2192
          CHANNELS 3 Zrotation Xrotation Yrotation
          JOINT leftEye
          {
            OFFSET 4.14528 8.04674 8.04672
            CHANNELS 3 Zrotation Xrotation Yrotation
            End Site
            {
              OFFSET 1 0 0
            }
          }
          JOINT rightEye
          {
            OFFSET -3.6576 8.04674 8.04672
            CHANNELS 3 Zrotation Xrotation Yrotation
            End Site
            {
              OFFSET 1 0 0
            }
          }
        }
      }
      JOINT rCollar
      {
        OFFSET -2.68224 19.2634 -4.8768
        CHANNELS 3 Zrotation Xrotation Yrotation
        JOINT rShldr
        {
          OFFSET -8.77824 -1.95073 1.46304
          CHANNELS 3 Zrotation Xrotation Yrotation
          JOINT rForeArm
          {
            OFFSET -28.1742 -1.7115 0.48768
            CHANNELS 3 Zrotation Xrotation Yrotation
            JOINT rHand
            {
              OFFSET -22.5879 0.773209 7.07136
              CHANNELS 3 Zrotation Xrotation Yrotation
              JOINT rThumb1
              {
                OFFSET -1.2192 -0.487915 3.41376
                CHANNELS 3 Zrotation Xrotation Yrotation
                JOINT rThumb2
                {
                  OFFSET -3.37035 -0.52449 3.41376
                  CHANNELS 3 Zrotation Xrotation Yrotation
                  End Site
                  {
                    OFFSET -1.78271 -1.18214 1.43049
                  }
                }
              }
              JOINT rIndex1
              {
                OFFSET -7.75947 0.938293 5.60832
                CHANNELS 3 Zrotation Xrotation Yrotation
                JOINT rIndex2
                {
                  OFFSET -2.54057 -0.884171 1.56538
                  CHANNELS 3 Zrotation Xrotation Yrotation
                  End Site
                  {
                    OFFSET -1.62519 -0.234802 1.16502
                  }
                }
              }
              JOINT rMid1
              {
                OFFSET -8.24714 1.18213 3.41376
                CHANNELS 3 Zrotation Xrotation Yrotation
                JOINT rMid2
                {
                  OFFSET -3.10165 -0.590103 1.0647
                  CHANNELS 3 Zrotation Xrotation Yrotation
                  End Site
                  {
                    OFFSET -2.48547 -0.328903 0.83742
                  }
                }
              }
              JOINT rRing1
              {
                OFFSET -8.82822 0.546677 1.51678
                CHANNELS 3 Zrotation Xrotation Yrotation
                JOINT rRing2
                {
                  OFFSET -2.60934 -0.819778 -0.0198488
                  CHANNELS 3 Zrotation Xrotation Yrotation
                  End Site
                  {
                    OFFSET -2.33842 -0.294052 0.168128
                  }
                }
              }
              JOINT rPinky1
              {
                OFFSET -8.27202 -0.0477905 -0.4584
                CHANNELS 3 Zrotation Xrotation Yrotation
                JOINT rPinky2
                {
                  OFFSET -1.82734 -0.647385 -0.700984
                  CHANNELS 3 Zrotation Xrotation Yrotation
                  End Site
                  {
                    OFFSET -1.69225 -0.51767 -0.607171
                  }
                }
              }
            }
          }
        }
      }
      JOINT lCollar
      {
        OFFSET 2.68224 19.2634 -4.8768
        CHANNELS 3 Zrotation Xrotation Yrotation
        JOINT lShldr
        {
          OFFSET 8.77824 -1.95073 1.46304
          CHANNELS 3 Zrotation Xrotation Yrotation
          JOINT lForeArm
          {
            OFFSET 28.1742 -1.7115 0.48768
            CHANNELS 3 Zrotation Xrotation Yrotation
            JOINT lHand
            {
              OFFSET 22.5879 0.773209 7.07136
              CHANNELS 3 Zrotation Xrotation Yrotation
              JOINT lThumb1
              {
                OFFSET 1.2192 -0.487915 3.41376
                CHANNELS 3 Zrotation Xrotation Yrotation
                JOINT lThumb2
                {
                  OFFSET 3.37035 -0.52449 3.41376
                  CHANNELS 3 Zrotation Xrotation Yrotation
                  End Site
                  {
                    OFFSET 1.78271 -1.18214 1.43049
                  }
                }
              }
              JOINT lIndex1
              {
                OFFSET 7.75947 0.938293 5.60832
                CHANNELS 3 Zrotation Xrotation Yrotation
                JOINT lIndex2
                {
                  OFFSET 2.54057 -0.884171 1.56538
                  CHANNELS 3 Zrotation Xrotation Yrotation
                  End Site
                  {
                    OFFSET 1.62519 -0.234802 1.16502
                  }
                }
              }
              JOINT lMid1
              {
                OFFSET 8.24714 1.18213 3.41376
                CHANNELS 3 Zrotation Xrotation Yrotation
                JOINT lMid2
                {
                  OFFSET 3.10165 -0.590103 1.0647
                  CHANNELS 3 Zrotation Xrotation Yrotation
                  End Site
                  {
                    OFFSET 2.48547 -0.328903 0.83742
                  }
                }
              }
              JOINT lRing1
              {
                OFFSET 8.82822 0.546677 1.51678
                CHANNELS 3 Zrotation Xrotation Yrotation
                JOINT lRing2
                {
                  OFFSET 2.60934 -0.819778 -0.0198488
                  CHANNELS 3 Zrotation Xrotation Yrotation
                  End Site
                  {
                    OFFSET 2.33842 -0.294052 0.168128
                  }
                }
              }
              JOINT lPinky1
              {
                OFFSET 8.27202 -0.0477905 -0.4584
                CHANNELS 3 Zrotation Xrotation Yrotation
                JOINT lPinky2
                {
                  OFFSET 1.82734 -0.647385 -0.700984
                  CHANNELS 3 Zrotation Xrotation Yrotation
                  End Site
                  {
                    OFFSET 1.69225 -0.51767 -0.607171
                  }
                }
              }
            }
          }
        }
      }
    }
  }
  JOINT rButtock
  {
    OFFSET -8.77824 4.35084 1.2192
    CHANNELS 3 Zrotation Xrotation Yrotation
    JOINT rThigh
    {
      OFFSET 0 -1.70687 -2.19456
      CHANNELS 3 Zrotation Xrotation Yrotation
      JOINT rShin
      {
        OFFSET 0 -36.8199 0.73152
        CHANNELS 3 Zrotation Xrotation Yrotation
        JOINT rFoot
        {
          OFFSET 0.73152 -45.1104 -5.12064
          CHANNELS 3 Zrotation Xrotation Yrotation
          End Site
          {
            OFFSET -1.1221 -3.69964 12.103
          }
        }
      }
    }
  }
  JOINT lButtock
  {
    OFFSET 8.77824 4.35084 1.2192
    CHANNELS 3 Zrotation Xrotation Yrotation
    JOINT lThigh
    {
      OFFSET 0 -1.70687 -2.19456
      CHANNELS 3 Zrotation Xrotation Yrotation
      JOINT lShin
      {
        OFFSET 0 -36.8199 0.73152
        CHANNELS 3 Zrotation Xrotation Yrotation
        JOINT lFoot
        {
          OFFSET -0.73152 -45.1104 -5.12064
          CHANNELS 3 Zrotation Xrotation Yrotation
          End Site
          {
            OFFSET 1.1221 -3.69964 12.103
          }
        }
      }
    }
  }
}
MOTION
Frames:	5
Frame Time:	0.00833333
-23.0326 94.9035 112.352 166.538 -39.0327 -51.178 30.3191 9.95197 5.90695 5.79761 -13.4322 2.39377 -10.8369 -5.02246 -1.19873 8.30843 -37.2253 5.67256 -0 0 0 -0 0 0 -3.56305e-015 1.61545e-012 8.34534e-013 -19.3575 -46.9523 63.2851 -18.1286 -10.8227 34.3177 -0.647899 22.2703 3.29878 -3.08697e-009 3.01711e-009 -2.91777e-009 -5.37627e-009 5.19304e-009 -4.9918e-009 -3.08696e-009 3.01711e-009 -2.91777e-009 7.73091 5.47488 0.417314 -3.08697e-009 3.01711e-009 -2.91777e-009 2.90554 0.965183 0.102902 -3.08697e-009 3.01711e-009 -2.91776e-009 10.2786 0.731801 0.0259123 -3.08698e-009 3.01711e-009 -2.91776e-009 2.22167 -0.733487 -0.20892 -3.51363e-015 1.61541e-012 8.34365e-013 11.4819 -61.8459 -42.7367 15.5437 -8.2656 -28.7243 0.00570511 -2.11572 0.29748 4.57488e-009 -7.72451e-009 2.19687e-009 7.90226e-009 -1.33594e-008 3.7993e-009 4.57486e-009 -7.72451e-009 2.19688e-009 -7.73091 5.47488 -0.417314 4.57488e-009 -7.72451e-009 2.19687e-009 -2.90554 0.965183 -0.102902 4.57487e-009 -7.72451e-009 2.19687e-009 -10.2786 0.731801 -0.0259123 4.57488e-009 -7.72451e-009 2.19687e-009 -2.22167 -0.733487 0.20892 -2.03217e-016 0 -3.88251e-019 -148.448 -57.0393 -100.73 -0.582378 47.3544 0.708963 -4.9682 -2.69313 -37.7865 2.03217e-016 0 3.88251e-019 23.7117 -9.81062 11.8417 155.315 86.5326 -152.907 4.85394 3.21414 4.06586 
-22.8196 95.0842 110.723 166.595 -37.9205 -53.1103 30.38 9.19457 5.26507 5.55084 -13.3269 2.23264 -11.8213 -6.34286 -1.53801 9.51175 -36.3773 5.98697 -0 0 0 -0 0 0 -1.28788e-013 1.95057e-012 5.50562e-013 -18.9746 -47.3966 63.4391 -18.0929 -10.7842 34.2366 -0.705043 23.1775 3.44857 -1.72376e-009 5.59844e-010 -5.79602e-010 -2.9775e-009 9.42431e-010 -9.75318e-010 -1.72376e-009 5.59843e-010 -5.79617e-010 7.73091 5.47488 0.417314 -1.72376e-009 5.59838e-010 -5.79603e-010 2.90554 0.965183 0.102902 -1.72376e-009 5.5984e-010 -5.79602e-010 10.2786 0.731801 0.0259123 -1.72378e-009 5.59846e-010 -5.796e-010 2.22167 -0.733487 -0.20892 -1.28792e-013 1.95055e-012 5.50342e-013 14.2795 -60.3619 -39.3782 15.8897 -8.57857 -29.4553 0.00808452 -2.54184 0.357467 -9.63689e-010 -4.96604e-009 2.52089e-010 -1.67093e-009 -8.59183e-009 4.32341e-010 -9.63698e-010 -4.96605e-009 2.52098e-010 -7.73091 5.47488 -0.417314 -9.63688e-010 -4.96605e-009 2.5209e-010 -2.90554 0.965183 -0.102902 -9.63698e-010 -4.96604e-009 2.52091e-010 -10.2786 0.731801 -0.0259123 -9.63684e-010 -4.96604e-009 2.52087e-010 -2.22167 -0.733487 0.20892 -2.03217e-016 0 -3.88251e-019 -147.031 -55.7204 -101.256 -0.783485 52.0695 0.791867 -4.49387 -2.20874 -36.2987 2.03217e-016 0 3.88251e-019 25.4512 -10.5994 10.8017 147.651 87.3882 -145.478 4.98286 1.89193 5.19122 
-22.5177 95.2416 109.367 166.655 -36.7055 -54.8808 30.3096 8.38596 4.76647 5.35285 -13.1997 2.09767 -12.8964 -7.72026 -1.9149 10.6941 -35.4171 6.29776 -0 0 0 -0 0 0 -2.60972e-013 2.22264e-012 2.11625e-013 -18.754 -47.7028 63.4532 -18.0979 -10.7913 34.2433 -0.761296 24.0002 3.58692 -5.15309e-011 -2.06759e-009 1.8858e-009 -4.33044e-011 -3.5981e-009 3.25567e-009 -5.15303e-011 -2.06759e-009 1.88578e-009 7.73091 5.47488 0.417314 -5.153e-011 -2.0676e-009 1.88579e-009 2.90554 0.965183 0.102902 -5.15248e-011 -2.0676e-009 1.88579e-009 10.2786 0.731801 0.0259123 -5.15545e-011 -2.06759e-009 1.88579e-009 2.22167 -0.733487 -0.20892 -2.61041e-013 2.22263e-012 2.11351e-013 16.3416 -58.7911 -36.7603 16.2351 -8.90277 -30.1823 0.0105941 -2.93692 0.41312 -6.61495e-009 -1.63055e-009 -1.85713e-009 -1.14381e-008 -2.82568e-009 -3.21978e-009 -6.61495e-009 -1.63055e-009 -1.85712e-009 -7.73091 5.47488 -0.417314 -6.61495e-009 -1.63055e-009 -1.85713e-009 -2.90554 0.965183 -0.102902 -6.61496e-009 -1.63055e-009 -1.85713e-009 -10.2786 0.731801 -0.0259123 -6.61494e-009 -1.63055e-009 -1.85713e-009 -2.22167 -0.733487 0.20892 -2.03217e-016 0 -3.88251e-019 -145.504 -54.5224 -101.655 -1.00909 56.5497 0.890538 -3.98121 -1.61784 -34.7498 2.03217e-016 0 3.88251e-019 26.8799 -11.4541 9.94382 119.808 88.4611 -117.903 5.13257 0.546291 6.29469 
-22.2578 95.4229 107.908 166.767 -35.308 -56.3033 30.1017 7.44798 4.68281 5.37102 -12.8944 2.04008 -14.1494 -9.03166 -2.35977 11.6306 -34.482 6.51123 -0 0 0 -0 0 0 -3.52196e-013 2.46334e-012 -1.57537e-014 -19.5869 -47.8862 62.7612 -18.1097 -10.8051 34.2669 -0.793171 24.4375 3.66157 1.21934e-009 -3.77987e-009 3.44903e-009 2.18049e-009 -6.5536e-009 5.93428e-009 1.21934e-009 -3.77986e-009 3.449e-009 7.73091 5.47488 0.417314 1.21934e-009 -3.77987e-009 3.44903e-009 2.90554 0.965183 0.102902 1.21934e-009 -3.77987e-009 3.44902e-009 10.2786 0.731801 0.0259123 1.21931e-009 -3.77986e-009 3.44902e-009 2.22167 -0.733487 -0.20892 -3.5232e-013 2.46334e-012 -1.60519e-014 16.9702 -57.3976 -35.3812 16.6178 -9.27402 -30.9878 0.0134901 -3.31419 0.466305 -1.01126e-008 8.64788e-010 -3.29933e-009 -1.74819e-008 1.48958e-009 -5.71788e-009 -1.01126e-008 8.64789e-010 -3.29932e-009 -7.73091 5.47488 -0.417314 -1.01126e-008 8.6479e-010 -3.29932e-009 -2.90554 0.965183 -0.102902 -1.01126e-008 8.64789e-010 -3.29932e-009 -10.2786 0.731801 -0.0259123 -1.01126e-008 8.64786e-010 -3.29933e-009 -2.22167 -0.733487 0.20892 -2.03217e-016 0 -3.88251e-019 -143.833 -53.6577 -101.714 -1.23706 60.2588 1.00745 -3.82075 -1.43256 -33.5258 2.03217e-016 0 3.88251e-019 27.9543 -12.251 9.47599 49.4783 88.3179 -47.8453 5.26088 -0.796057 7.13211 
-22.0314 95.6788 106.582 166.899 -33.7334 -57.3832 29.777 6.35809 5.1943 5.76663 -12.3092 2.09949 -15.7903 -10.3095 -2.94125 12.2624 -33.5558 6.60561 -0 0 0 -0 0 0 -3.84949e-013 2.65922e-012 -6.6997e-014 -22.0781 -47.9027 60.9574 -18.1419 -10.8401 34.3392 -0.786082 24.3325 3.64385 1.98201e-009 -4.24994e-009 3.7744e-009 3.50297e-009 -7.35666e-009 6.48185e-009 1.98201e-009 -4.24994e-009 3.77438e-009 7.73091 5.47488 0.417314 1.98201e-009 -4.24995e-009 3.7744e-009 2.90554 0.965183 0.102902 1.98202e-009 -4.24995e-009 3.7744e-009 10.2786 0.731801 0.0259123 1.98199e-009 -4.24994e-009 3.7744e-009 2.22167 -0.733487 -0.20892 -3.8512e-013 2.65922e-012 -6.72684e-014 15.7303 -56.3593 -35.5008 17.0706 -9.72758 -31.9492 0.018035 -3.79879 0.534685 -1.06122e-008 2.17648e-009 -3.82731e-009 -1.83418e-008 3.76136e-009 -6.63501e-009 -1.06122e-008 2.17648e-009 -3.8273e-009 -7.73091 5.47488 -0.417314 -1.06122e-008 2.17648e-009 -3.82731e-009 -2.90554 0.965183 -0.102902 -1.06122e-008 2.17648e-009 -3.82731e-009 -10.2786 0.731801 -0.0259123 -1.06122e-008 2.17648e-009 -3.82731e-009 -2.22167 -0.733487 0.20892 -2.03217e-016 0 -3.88251e-019 -141.988 -53.2056 -101.368 -1.46265 63.0199 1.1382 -4.09799 -1.82957 -32.7633 2.03217e-016 0 3.88251e-019 28.5754 -12.94 9.41888 19.3013 86.3087 -17.9555 5.31659 -2.17722 7.56947 
